<svg width="102" height="16" viewBox="0 0 102 16" fill="none" xmlns="http://www.w3.org/2000/svg">
<g clip-path="url(#clip0)">
<path d="M66.98 10.608L65.264 3.3H63.824L62.216 10.608L60.536 3.3H59.192L61.4 12H62.888L64.532 4.848L66.212 12H67.7L69.872 3.3H68.588L66.98 10.608ZM70.062 10.296C70.062 11.484 71.07 12.156 72.282 12.156C73.422 12.156 74.094 11.772 74.49 11.112C74.502 11.496 74.538 11.76 74.574 12H75.678C75.558 11.388 75.498 10.644 75.51 9.564L75.522 8.076C75.534 6.264 74.73 5.412 72.954 5.412C71.694 5.412 70.47 6.192 70.362 7.584H71.49C71.538 6.792 72.066 6.3 72.966 6.3C73.77 6.3 74.43 6.696 74.43 7.872V8.028C71.778 8.328 70.062 8.772 70.062 10.296ZM74.514 8.892V9.3C74.514 10.824 73.542 11.292 72.522 11.292C71.742 11.292 71.274 10.884 71.274 10.272C71.274 9.384 72.534 9.096 74.514 8.892ZM78.2412 12V3.3H77.1492V12H78.2412ZM81.0654 12V3.3H79.9734V12H81.0654ZM83.5296 9.132H88.4976C88.6416 7.092 87.4536 5.436 85.4856 5.436C83.7216 5.436 82.3536 6.744 82.3536 8.784C82.3536 10.692 83.4816 12.156 85.5216 12.156C87.0936 12.156 88.1136 11.244 88.4136 10.128H87.2856C87.0096 10.764 86.4816 11.196 85.5216 11.196C84.5616 11.196 83.5776 10.524 83.5296 9.132ZM83.5416 8.196C83.6376 6.9 84.5136 6.372 85.4856 6.372C86.6376 6.372 87.3216 7.284 87.3456 8.196H83.5416ZM90.0823 3.924V5.544H89.0623V6.42H90.0823V10.38C90.0823 11.724 90.3703 12 91.6063 12H92.3983V11.088H91.8463C91.2223 11.088 91.1743 10.92 91.1743 10.248V6.42H92.3983V5.544H91.1743V3.924H90.0823Z" fill="black"/>
<path fill-rule="evenodd" clip-rule="evenodd" d="M47.583 1V6.80094L50.4572 3.90047L47.583 1Z" fill="#00A87A"/>
<path fill-rule="evenodd" clip-rule="evenodd" d="M53.3124 1V6.80094L50.438 3.90047L53.3124 1Z" fill="black"/>
<path fill-rule="evenodd" clip-rule="evenodd" d="M10.5483 1.15558L10.3884 1.3042L8.8243 6.71098L8.81646 6.71642L7.06283 1.29789L6.90462 1.15558H5.31152L5.15353 1.29789L3.41112 6.67812L3.3821 6.66223L3.37363 6.65549L1.81145 1.30376L1.65155 1.15558H0.104202L0 1.30028L2.4337 8.9176L2.60589 9.07079H4.14074L4.31293 8.9176L6.05258 3.46752L6.08562 3.46773L7.8365 8.91782L8.00848 9.07079H9.56282L9.735 8.9176L12.1687 1.30028L12.0645 1.15558H10.5483Z" fill="black"/>
<path fill-rule="evenodd" clip-rule="evenodd" d="M27.7619 1.27631L27.5938 1.41818L25.4483 7.05408L25.4301 7.06758L23.3088 1.41905L23.1406 1.27631H21.5763L21.4814 1.41818L24.5353 9.04398L24.7155 9.19151H26.1256L26.3054 9.04464L29.3904 1.41861L29.2955 1.27631H27.7619Z" fill="black"/>
<path fill-rule="evenodd" clip-rule="evenodd" d="M31.5169 4.12962C31.77 3.19657 32.5434 2.50615 33.5613 2.50615C34.9064 2.50615 35.4651 3.46552 35.6239 4.12962H31.5169ZM37.1909 5.54162L37.3371 5.3967L37.3411 5.16931C37.3411 3.93403 36.9944 2.86695 36.3107 2.12539C35.6243 1.38121 34.6992 1.00391 33.5617 1.00391C32.4635 1.00391 31.5481 1.41277 30.8416 2.21895C30.1387 3.021 29.7822 3.99191 29.7822 5.10512C29.7822 6.28078 30.1497 7.26823 30.8746 8.03981C31.6011 8.81358 32.5565 9.20634 33.7146 9.20634C34.5488 9.20634 35.2645 9.00136 35.8416 8.59751C36.4168 8.19496 37.0238 7.5363 37.2309 6.63307L37.1178 6.48402H35.6887L35.4902 6.63067C35.131 7.35657 34.5829 7.69993 33.6839 7.69993C33.0942 7.69993 32.5722 7.48887 32.1323 7.07283C31.7161 6.67963 31.4763 6.20745 31.4185 5.54031L37.1909 5.54162Z" fill="black"/>
<mask id="mask0" mask-type="alpha" maskUnits="userSpaceOnUse" x="12" y="1" width="9" height="9">
<path fill-rule="evenodd" clip-rule="evenodd" d="M13.796 2.18349C13.081 2.9677 12.7207 3.94688 12.7207 5.1047C12.7207 6.26295 13.081 7.24234 13.796 8.02633C14.5131 8.81337 15.3736 9.20983 16.3635 9.20983C16.8894 9.20983 17.37 9.10538 17.8001 8.89758C17.8842 8.85689 17.9655 8.81337 18.0441 8.76659C18.3556 8.58076 18.6104 8.36186 18.8061 8.11098C18.8095 8.1075 18.8192 8.1088 18.8288 8.11011C18.8385 8.11141 18.8483 8.1125 18.8514 8.1088V8.92326L18.9978 9.07057H20.3031L20.4492 8.92326V1.30333L20.3031 1.15558H18.9978L18.8514 1.30333V2.09102L18.8267 2.12105C18.6259 1.85884 18.362 1.63059 18.0369 1.43845C17.9632 1.39515 17.8871 1.35424 17.8086 1.31595C17.3765 1.10575 16.893 1 16.3635 1C15.3736 1 14.5131 1.39667 13.796 2.18349ZM15.0724 6.9984C14.6276 6.52579 14.4036 5.89128 14.4036 5.10468C14.4036 4.31916 14.6276 3.68466 15.0724 3.21117C15.5189 2.73617 15.9708 2.50225 16.5909 2.50225C17.2212 2.50225 17.7486 2.73355 18.1904 3.20356C18.4789 3.51058 18.6729 3.89116 18.7726 4.34114V5.86865C18.6729 6.31842 18.4789 6.69899 18.1904 7.00602C17.7486 7.47624 17.2212 7.70776 16.5909 7.70776C15.9708 7.70776 15.5189 7.47384 15.0724 6.9984Z" fill="white"/>
</mask>
<g mask="url(#mask0)">
<path fill-rule="evenodd" clip-rule="evenodd" d="M-36.7046 239.91H478.451V-36.9637H-36.7046V239.91Z" fill="black"/>
<path fill-rule="evenodd" clip-rule="evenodd" d="M11.1104 10.864H22.0587V-0.653931H11.1104V10.864Z" fill="black"/>
</g>
<mask id="mask1" mask-type="alpha" maskUnits="userSpaceOnUse" x="38" y="1" width="7" height="9">
<path fill-rule="evenodd" clip-rule="evenodd" d="M38.511 3.36023C38.511 4.13377 38.7876 5.0505 40.6418 5.48351C40.6418 5.48351 41.5267 5.68065 42.234 5.84406C43.0388 6.02967 43.3769 6.30297 43.3769 6.78146C43.3769 7.21338 42.9486 7.73104 41.8346 7.73104C40.7962 7.73104 40.171 7.22644 40.142 6.63219L39.9617 6.4851H38.5004L38.3877 6.63415C38.5211 7.96104 39.4941 9.2072 41.8246 9.2072C44.4608 9.2072 45 7.58264 45 6.72902C45 5.60319 44.3543 4.85292 42.7121 4.49237C42.7121 4.49237 41.8581 4.31155 41.1509 4.14661C40.5005 3.99451 40.1797 3.80586 40.1797 3.33803C40.1797 2.84344 40.6488 2.43806 41.6518 2.43806C42.6335 2.43806 43.1799 2.88457 43.1799 3.26927L43.3512 3.42093H44.7804L44.8948 3.2771C44.8948 2.24723 44.0065 1.00433 41.6885 1.00433C39.2681 1.00433 38.511 2.43589 38.511 3.36023Z" fill="white"/>
</mask>
<g mask="url(#mask1)">
<path fill-rule="evenodd" clip-rule="evenodd" d="M-36.7046 239.91H478.451V-36.9638H-36.7046V239.91Z" fill="black"/>
<path fill-rule="evenodd" clip-rule="evenodd" d="M36.7778 10.8609H46.6098V-0.649597H36.7778V10.8609Z" fill="black"/>
</g>
<path fill-rule="evenodd" clip-rule="evenodd" d="M0.70166 11.9376V14.8546H2.7436V14.3879H1.25467V13.5952H2.66237V13.1285H1.25467V12.4043H2.7436V11.9376H0.70166Z" fill="black"/>
<path fill-rule="evenodd" clip-rule="evenodd" d="M7.05182 14.8546H7.77113V11.9376H7.24904V14.1626L6.12752 11.9376H5.4082V14.8546H5.9303V12.6296L7.05182 14.8546Z" fill="black"/>
<path fill-rule="evenodd" clip-rule="evenodd" d="M11.2247 12.4043V14.8546H11.7777V12.4043H12.644V11.9376H10.3623V12.4043H11.2247Z" fill="black"/>
<path fill-rule="evenodd" clip-rule="evenodd" d="M15.2349 11.9376V14.8546H17.2768V14.3879H15.7879V13.5952H17.1956V13.1285H15.7879V12.4043H17.2768V11.9376H15.2349Z" fill="black"/>
<path fill-rule="evenodd" clip-rule="evenodd" d="M21.0823 13.7119L21.6393 14.8546H22.254L21.6314 13.5912C21.9795 13.4383 22.138 13.1567 22.138 12.8227C22.138 12.2112 21.7861 11.9376 20.8618 11.9376H19.9414V14.8546H20.4944V13.7119H21.0823ZM20.4944 12.3882H20.9237C21.2988 12.3882 21.5695 12.4888 21.5695 12.8267C21.5695 13.1124 21.38 13.2653 20.9508 13.2653H20.4944V12.3882Z" fill="black"/>
<path fill-rule="evenodd" clip-rule="evenodd" d="M25.839 11.9376H24.8799V14.8546H25.4329V13.8286H25.8545C26.5003 13.8286 27.0727 13.6476 27.0727 12.9032C27.0727 12.022 26.4151 11.9376 25.839 11.9376ZM25.4329 12.3882H25.8505C26.1522 12.3882 26.504 12.4284 26.504 12.9072C26.504 13.2935 26.2334 13.382 25.8891 13.382H25.4329V12.3882Z" fill="black"/>
<path fill-rule="evenodd" clip-rule="evenodd" d="M30.8123 13.7119L31.3691 14.8546H31.984L31.3613 13.5912C31.7095 13.4383 31.868 13.1567 31.868 12.8227C31.868 12.2112 31.5162 11.9376 30.5919 11.9376H29.6714V14.8546H30.2244V13.7119H30.8123ZM30.2244 12.3882H30.6536C31.0289 12.3882 31.2996 12.4888 31.2996 12.8267C31.2996 13.1124 31.11 13.2653 30.6806 13.2653H30.2244V12.3882Z" fill="black"/>
<path fill-rule="evenodd" clip-rule="evenodd" d="M34.6099 14.8546H35.1629V11.9376H34.6099V14.8546Z" fill="black"/>
<path fill-rule="evenodd" clip-rule="evenodd" d="M38.7326 13.5751L39.0884 13.6435C39.3862 13.6999 39.6066 13.7924 39.6066 14.0419C39.6066 14.3557 39.2934 14.4482 39.046 14.4482C38.7134 14.4482 38.4272 14.3195 38.3653 13.893H37.8315C37.8818 14.5207 38.3383 14.9069 39.0265 14.9069C39.5912 14.9069 40.1636 14.6132 40.1636 14.0137C40.1636 13.4102 39.6609 13.221 39.2045 13.1366L38.8372 13.0682C38.6128 13.0239 38.4465 12.9113 38.4465 12.706C38.4465 12.4445 38.7326 12.3439 38.9879 12.3439C39.251 12.3439 39.5371 12.4566 39.5795 12.7986H40.1133C40.0863 12.2393 39.5912 11.8853 39.0111 11.8853C38.493 11.8853 37.8935 12.1427 37.8935 12.7302C37.8935 13.2371 38.2764 13.4826 38.7326 13.5751Z" fill="black"/>
<path fill-rule="evenodd" clip-rule="evenodd" d="M42.8242 11.9376V14.8546H44.8662V14.3879H43.3772V13.5952H44.785V13.1285H43.3772V12.4043H44.8662V11.9376H42.8242Z" fill="black"/>
</g>
<defs>
<clipPath id="clip0">
<rect width="102" height="16" fill="white"/>
</clipPath>
</defs>
</svg>
